<?xml version="1.0" encoding="UTF-8" standalone="no"?>
<!-- Created with Inkscape (http://www.inkscape.org/) -->

<svg
   width="210mm"
   height="297mm"
   viewBox="0 0 210 297"
   version="1.1"
   id="svg5"
   inkscape:version="1.1.1 (3bf5ae0d25, 2021-09-20)"
   sodipodi:docname="ticket.svg"
   xmlns:inkscape="http://www.inkscape.org/namespaces/inkscape"
   xmlns:sodipodi="http://sodipodi.sourceforge.net/DTD/sodipodi-0.dtd"
   xmlns="http://www.w3.org/2000/svg"
   xmlns:svg="http://www.w3.org/2000/svg">
  <sodipodi:namedview
     id="namedview7"
     pagecolor="#ffffff"
     bordercolor="#666666"
     borderopacity="1.0"
     inkscape:pageshadow="2"
     inkscape:pageopacity="0.0"
     inkscape:pagecheckerboard="0"
     inkscape:document-units="mm"
     showgrid="false"
     inkscape:zoom="0.70377385"
     inkscape:cx="19.892754"
     inkscape:cy="447.58696"
     inkscape:window-width="1920"
     inkscape:window-height="986"
     inkscape:window-x="-11"
     inkscape:window-y="-11"
     inkscape:window-maximized="1"
     inkscape:current-layer="layer1" />
  <defs
     id="defs2" />
  <g
     inkscape:label="圖層 1"
     inkscape:groupmode="layer"
     id="layer1">
    <path
       style="fill:#000000;stroke-width:0.182771"
       d="M 111.04042,143.29639 C 106.57776,140.93718 96.578996,130.00331 87.895046,117.9864 75.17386,100.38272 67.391934,84.017857 66.358883,72.697299 c -0.240801,-2.63879 0.0095,-7.151481 0.569957,-10.274848 1.40964,-7.856095 4.622772,-14.886618 9.664599,-21.146709 1.849011,-2.295789 5.651867,-5.987814 7.914321,-7.683663 8.242542,-6.178293 17.72355,-9.354735 27.92192,-9.354735 7.56049,0 14.07489,1.474558 20.56176,4.654233 10.41039,5.102866 18.63277,13.968925 22.80397,24.589167 2.31338,5.89007 3.56554,13.642382 3.08144,19.077685 -0.83401,9.364075 -5.93659,21.553972 -14.96614,35.753691 -9.59908,15.09535 -23.88305,31.90662 -29.72623,34.98578 -1.13583,0.59855 -2.00979,0.59813 -3.14406,-0.001 z m 2.76004,-0.32519 c 1.77392,-0.83358 4.49639,-3.17585 8.22471,-7.07609 2.72094,-2.84642 3.27559,-3.46723 5.88856,-6.59098 9.10942,-10.89011 17.42782,-23.16721 22.70607,-33.511842 3.66464,-7.182153 6.02859,-13.431442 7.24917,-19.163752 0.57748,-2.712045 0.79029,-7.903286 0.44799,-10.928198 -1.57443,-13.91337 -8.81701,-25.774155 -20.48208,-33.542416 -9.76964,-6.506015 -22.29389,-8.975993 -34.03655,-6.71254 -8.771729,1.690791 -17.077125,6.084011 -23.458166,12.40842 -6.782351,6.722159 -11.176895,15.035138 -12.987442,24.567812 -0.573645,3.020291 -0.805728,9.030579 -0.446185,11.554932 1.831455,12.858642 11.028373,30.531004 25.963064,49.889384 1.439879,1.86637 6.138953,7.51797 7.507179,9.02892 4.3915,4.84957 9.15874,9.20063 11.04104,10.07715 1.13888,0.53033 1.25243,0.5303 2.38264,-7.3e-4 z m -4.93482,-40.08617 c -3.22989,-0.28835 -7.6466,-1.56296 -10.966277,-3.164728 C 87.254422,94.584041 80.175037,84.603235 78.781298,72.766874 c -0.325295,-2.762567 -0.111865,-7.51699 0.460205,-10.251656 1.091169,-5.216116 3.517964,-10.410332 6.782786,-14.517612 1.893629,-2.38226 5.141379,-5.332632 7.762721,-7.051928 5.63027,-3.692806 12.33978,-5.742059 18.80023,-5.742059 1.71351,0 5.6999,0.447347 7.41596,0.832208 6.87346,1.541504 13.55363,5.514549 18.26291,10.861899 7.85012,8.913754 10.40054,21.687272 6.59907,33.050795 -4.00907,11.984097 -14.84933,21.011149 -27.36881,22.790949 -1.69859,0.24147 -6.62564,0.32457 -8.63073,0.14556 z m 8.13332,-0.50163 c 14.39452,-1.91771 26.00776,-13.012935 28.72628,-27.44492 0.54427,-2.889369 0.58236,-8.347554 0.0776,-11.123793 -2.39286,-13.162105 -11.63567,-23.394376 -24.35941,-26.967137 -4.92438,-1.382741 -10.29827,-1.567869 -15.45671,-0.532476 -7.882447,1.582147 -15.507472,6.415517 -20.291606,12.862493 -4.068833,5.483053 -6.357258,11.929953 -6.652796,18.742106 -0.5527,12.739737 6.679773,25.02957 18.217296,30.955875 3.809436,1.956732 7.541686,3.119112 11.423206,3.557652 2.26531,0.25594 6.19796,0.23239 8.31609,-0.0498 z M 95.980265,91.691371 c 0,-0.194757 0.81107,-2.075541 1.802377,-4.179518 l 1.802377,-3.825411 -0.825953,-0.256501 C 98.270084,83.278085 97.777097,82.964472 97.550696,82.661232 97.169263,82.150345 97.168278,82.106554 97.168278,65.657844 V 49.166661 l 0.673713,-1.361304 c 0.370544,-0.748719 0.96031,-1.638418 1.310591,-1.977112 0.590976,-0.571421 0.759771,-0.628185 2.342008,-0.787592 0.93783,-0.09448 6.55772,-0.146358 12.48864,-0.11528 12.21096,0.06399 11.40143,-0.03799 12.59394,1.586523 0.36382,0.495624 0.84553,1.299967 1.07047,1.787429 l 0.40898,0.886295 v 16.48166 c 0,16.351294 -0.003,16.485647 -0.37613,16.985494 -0.20688,0.277106 -0.74916,0.632706 -1.20507,0.790222 l -0.82893,0.28639 1.78666,3.74681 c 0.98267,2.060746 1.79225,3.931867 1.79908,4.158046 0.0122,0.405804 -0.0172,0.410974 -2.22655,0.3914 -1.23142,-0.01091 -2.72689,-0.0726 -3.32328,-0.137079 l -1.08433,-0.117242 -0.46578,-1.690634 -0.46577,-1.690634 h -9.05407 -9.05407 l -0.46578,1.690634 -0.46577,1.690634 -1.08433,0.117242 c -0.59639,0.06448 -2.091866,0.126167 -3.323287,0.137079 -2.099822,0.0186 -2.238948,-0.0022 -2.238948,-0.334271 z m 6.208475,-0.320226 c 0.0471,-0.04165 0.29483,-0.791116 0.55051,-1.665487 l 0.46487,-1.589762 h 9.40833 9.40833 l 0.48055,1.644941 0.48055,1.644941 2.89835,0.126414 c 1.59409,0.06953 2.91437,0.110381 2.93397,0.09079 0.0196,-0.01959 -0.77647,-1.762544 -1.76904,-3.873224 -0.99256,-2.110679 -1.80844,-3.971768 -1.81307,-4.135752 -0.006,-0.203145 0.25171,-0.363654 0.80795,-0.503716 1.48061,-0.372824 1.48544,-0.387928 1.62198,-5.07962 0.1547,-5.315597 0.12869,-21.052843 -0.0422,-25.555166 -0.1248,-3.28738 -0.15827,-3.523848 -0.62736,-4.432212 -0.27254,-0.527755 -0.8437,-1.318199 -1.26923,-1.756541 l -0.77369,-0.796983 -2.65019,-0.116195 c -3.41359,-0.149668 -14.32121,-0.150905 -18.65906,-0.0021 l -3.36487,0.115413 -0.935786,0.952798 c -0.621528,0.632825 -1.067089,1.303738 -1.326778,1.997821 -0.374643,1.001323 -0.39585,1.440117 -0.507072,10.492071 -0.06384,5.195876 -0.05329,12.561667 0.02345,16.368427 0.157622,7.818811 0.07222,7.413593 1.646036,7.809885 0.492887,0.124111 0.82599,0.312404 0.82599,0.466909 0,0.142408 -0.707731,1.757024 -1.572731,3.588034 -0.865001,1.831011 -1.68686,3.592307 -1.826351,3.913988 l -0.25362,0.584875 2.877283,-0.107402 c 1.582509,-0.05907 2.915829,-0.141478 2.962929,-0.183126 z m 1.90778,-5.792624 c -0.0533,-0.139003 0.0373,-0.714732 0.20147,-1.279399 l 0.29846,-1.026664 h 8.016 8.01599 l 0.29846,1.026664 c 0.16416,0.564667 0.25482,1.140396 0.20148,1.279399 -0.14456,0.376734 -16.8873,0.376734 -17.03186,0 z m 16.55684,-0.341272 c -5.4e-4,-0.125656 -0.0867,-0.536891 -0.19136,-0.913857 L 120.27166,83.638 h -7.65921 -7.65921 l -0.19034,0.685392 c -0.10469,0.376966 -0.19081,0.788201 -0.19137,0.913857 -7.3e-4,0.179326 1.72867,0.228464 8.04092,0.228464 6.31224,0 8.04171,-0.04914 8.04091,-0.228464 z m -19.01737,-9.736811 c -0.85297,-0.62487 -1.26921,-1.452655 -1.26921,-2.524082 0,-1.911 1.12384,-3.0462 3.01572,-3.0462 1.95888,0 3.01573,1.076223 3.01573,3.071007 0,1.878318 -1.13842,2.960445 -3.11445,2.960445 -0.80048,0 -1.15292,-0.09864 -1.64779,-0.46117 z m 3.07327,-0.268928 c 1.74378,-1.063192 1.74378,-3.487139 0,-4.582114 -0.82617,-0.518783 -2.323,-0.413787 -2.99047,0.20977 -1.870078,1.747034 -0.82014,4.735532 1.66371,4.735532 0.40781,0 0.99448,-0.160595 1.32676,-0.363188 z m 15.46469,0.274312 c -0.90087,-0.540012 -1.34728,-1.385245 -1.34728,-2.550946 0,-0.986288 0.2898,-1.621941 1.08348,-2.37656 0.47835,-0.454806 0.74726,-0.550907 1.70695,-0.610019 0.96599,-0.0595 1.23573,-0.0046 1.7745,0.361432 1.00088,0.679902 1.46652,1.51057 1.46652,2.616153 0,2.411652 -2.57966,3.821458 -4.68417,2.55994 z m 2.78674,-0.206447 c 1.85545,-0.880466 1.99422,-3.403618 0.25258,-4.592441 -2.22623,-1.5196 -5.10815,1.380077 -3.60618,3.628397 0.76753,1.148913 2.13539,1.542125 3.3536,0.964044 z M 100.76817,60.188886 100.184,59.586179 V 55.83823 52.090281 l 0.60271,-0.584167 0.60271,-0.584167 h 11.24157 11.24157 l 0.58417,0.602708 0.58416,0.602706 v 3.74795 3.747949 l -0.6027,0.584166 -0.60271,0.584168 h -11.24157 -11.24157 z m 23.30447,-0.347002 0.60271,-0.584167 v -3.427536 -3.427537 l -0.59401,-0.556732 -0.594,-0.556732 h -10.87489 -10.87489 l -0.59401,0.556732 -0.594,0.556732 v 3.408996 3.408997 l 0.58416,0.602706 0.58417,0.602708 h 10.87603 10.87603 z M 109.1398,48.088992 v -1.188013 h 3.47265 3.47265 v 1.188013 1.188013 h -3.47265 -3.47265 z m 6.57976,0 v -0.822471 h -3.10711 -3.10711 v 0.822471 0.822471 h 3.10711 3.10711 z"
       id="path21" />
  </g>
</svg>
